<svg xmlns="http://www.w3.org/2000/svg" version="1.1" xmlns:xlink="http://www.w3.org/1999/xlink" viewBox="0 0 200 200"><rect width="200" height="200" fill="url('#gradient')"></rect><defs><linearGradient id="gradient" gradientTransform="rotate(45 0.5 0.5)"><stop offset="0%" stop-color="#c6e9f9"></stop><stop offset="100%" stop-color="#57bf7f"></stop></linearGradient></defs><g><g fill="#000000" transform="matrix(3.9485249709639954,0,0,3.9485249709639954,12.757615174167242,128.07338793722457)" stroke="#ffffff" stroke-width="0"><path d="M8.87 0L6.36-5.02L4.50-5.02L4.50 0L1.07 0L1.07-14.22L6.67-14.22Q9.20-14.22 10.63-13.10Q12.05-11.97 12.05-9.92L12.05-9.92Q12.05-8.44 11.45-7.46Q10.85-6.48 9.57-5.88L9.57-5.88L12.54-0.15L12.54 0L8.87 0ZM4.50-11.57L4.50-7.67L6.67-7.67Q7.65-7.67 8.14-8.18Q8.63-8.69 8.63-9.61Q8.63-10.53 8.13-11.05Q7.64-11.57 6.67-11.57L6.67-11.57L4.50-11.57ZM14.12-14.22L18.62-14.22L21.80-4.33L24.96-14.22L29.47-14.22L29.47 0L26.04 0L26.04-3.32L26.37-10.12L22.93 0L20.66 0L17.22-10.13L17.55-3.32L17.55 0L14.12 0L14.12-14.22ZM39.44 0L36.93-5.02L35.08-5.02L35.08 0L31.65 0L31.65-14.22L37.25-14.22Q39.78-14.22 41.20-13.10Q42.63-11.97 42.63-9.92L42.63-9.92Q42.63-8.44 42.03-7.46Q41.43-6.48 40.15-5.88L40.15-5.88L43.12-0.15L43.12 0L39.44 0ZM35.08-11.57L35.08-7.67L37.25-7.67Q38.22-7.67 38.72-8.18Q39.21-8.69 39.21-9.61Q39.21-10.53 38.71-11.05Q38.21-11.57 37.25-11.57L37.25-11.57L35.08-11.57Z"></path></g></g></svg>